<svg xmlns="http://www.w3.org/2000/svg" width="16" height="16" stroke="#000" stroke-linecap="round" stroke-linejoin="round" fill="#fff" fill-rule="evenodd">
    <path d="M0 8.0002V16h16V0H0zm12.8938-.6374c.4063.1015.7163.282 1.0008.5765.15.1574.3657.4444.3835.5129.005.02-.6908.4875-1.1125.7493-.015.01-.0763-.0558-.145-.1575-.2058-.3-.4215-.4293-.7517-.452-.485-.033-.8.221-.795.645 0 .1245.0175.198.0685.3.1067.2209.305.3529.927.6249 1.1454.4925 1.6354.8175 1.9399 1.28.34.5155.4165 1.3385.1855 1.9504-.254.6655-.8837 1.1175-1.77 1.2675-.2742.0482-.9244.0407-1.2189-.0125-.6425-.1143-1.252-.4317-1.628-.8482-.15-.1625-.4342-.5868-.4164-.6175.0075-.01.0737-.0508.1499-.094l.5943-.3425.46-.2667.0965.1425c.1345.2057.4292.4874.6069.5814.5105.2693 1.2115.231 1.5567-.0787.15-.1345.2083-.2743.2083-.48 0-.1855-.025-.2667-.1193-.4062-.1245-.175-.3784-.325-1.0999-.64-.8255-.3555-1.181-.5765-1.506-.927-.188-.2032-.3657-.5282-.4395-.8-.061-.226-.0762-.7924-.028-1.0209.17-.8.772-1.3537 1.6407-1.5187.282-.0533.9375-.033 1.214.0355zm-3.7561.6674l.005.655H7.0603V14.6h-1.473V8.6852H3.5049v-.6425l.0175-.6599c.0075-.01 1.275-.015 2.8114-.0125l2.7962.0075z" stroke="none" fill-rule="nonzero" fill="#000"/>
</svg>